<?xml version="1.0" standalone="no"?>
<!DOCTYPE svg PUBLIC "-//W3C//DTD SVG 20010904//EN"
 "http://www.w3.org/TR/2001/REC-SVG-20010904/DTD/svg10.dtd">
<svg version="1.0" xmlns="http://www.w3.org/2000/svg"
 width="1407.000000pt" height="1407.000000pt" viewBox="0 0 1407.000000 1407.000000"
 preserveAspectRatio="xMidYMid meet">
<metadata>
Created by potrace 1.11, written by Peter Selinger 2001-2013
</metadata>
<g transform="translate(0.000000,1407.000000) scale(0.100000,-0.100000)"
fill="#000000" stroke="none">
<path d="M6640 14053 c-2863 -163 -5332 -2035 -6263 -4749 -506 -1473 -497
-3134 23 -4609 520 -1474 1535 -2751 2855 -3593 1903 -1212 4288 -1438 6380
-602 2428 969 4121 3207 4389 5800 41 395 46 983 12 1360 -125 1356 -619 2613
-1450 3685 -296 382 -685 783 -1071 1105 -555 463 -1216 853 -1910 1127 -676
267 -1392 426 -2140 473 -143 9 -685 11 -825 3z m160 -684 c363 -24 475 -54
566 -151 174 -186 123 -480 -103 -598 -79 -41 -139 -46 -291 -26 -296 39 -670
32 -986 -20 -932 -152 -1811 -645 -2343 -1313 -475 -597 -726 -1304 -774
-2179 -37 -671 106 -1467 347 -1932 68 -131 77 -139 157 -147 37 -3 67 -3 67
0 0 4 -15 44 -34 89 -84 204 -146 446 -183 708 -24 177 -24 630 0 825 72 566
257 1085 544 1529 551 851 1411 1326 2408 1330 l210 1 67 -33 c137 -67 211
-187 212 -342 0 -75 -4 -93 -31 -152 -48 -102 -133 -178 -238 -210 -16 -5
-120 -13 -230 -18 -368 -16 -639 -82 -930 -227 -654 -327 -1109 -1009 -1246
-1868 -26 -167 -37 -515 -20 -676 49 -471 224 -856 490 -1076 36 -29 66 -51
68 -49 3 2 -12 54 -31 115 -41 130 -78 291 -103 446 -26 161 -25 584 1 750
100 642 418 1174 891 1490 341 228 713 335 1165 335 181 0 249 -13 327 -65
112 -74 168 -182 167 -320 -1 -114 -29 -182 -108 -261 -95 -95 -136 -107 -371
-110 -256 -3 -413 -34 -594 -115 -171 -78 -367 -246 -478 -409 -237 -351 -322
-830 -232 -1298 11 -59 24 -113 28 -120 5 -9 15 21 25 75 42 208 140 446 257
623 78 116 255 298 359 367 223 149 437 213 714 213 212 0 364 -30 574 -112
168 -65 258 -167 282 -316 13 -76 -6 -180 -45 -246 -89 -151 -289 -225 -450
-166 -156 57 -243 81 -316 87 -160 12 -291 -37 -404 -151 -154 -156 -239 -381
-251 -666 -15 -336 95 -653 307 -884 99 -107 642 -464 994 -653 576 -309 1202
-519 1795 -602 456 -63 945 -51 1347 34 453 95 862 279 1205 542 200 153 433
396 567 593 101 146 173 200 296 219 120 18 231 -16 318 -98 62 -59 102 -134
115 -217 12 -70 6 -111 -42 -301 -210 -829 -568 -1551 -1135 -2284 -143 -185
-541 -591 -775 -792 -891 -763 -1970 -1250 -3106 -1401 -1446 -193 -2896 142
-4105 947 -1256 836 -2153 2112 -2505 3562 -135 554 -194 1128 -171 1647 35
758 186 1387 473 1961 180 361 383 647 673 946 l131 136 38 115 c201 611 537
1161 986 1610 803 804 2008 1302 3190 1319 58 0 179 -4 270 -10z m3079 -2360
c227 -61 428 -249 501 -468 34 -102 46 -218 33 -320 -21 -166 -79 -290 -191
-412 -264 -287 -701 -315 -1004 -65 -167 138 -258 336 -258 561 0 178 49 320
159 458 180 227 475 322 760 246z m-161 -2925 c464 -96 787 -539 732 -1007
-46 -393 -312 -700 -696 -803 -107 -29 -361 -27 -468 4 -326 94 -569 338 -657
658 -32 118 -37 301 -11 424 76 366 352 644 722 726 81 18 287 17 378 -2z"/>
<path d="M2069 8630 c-118 -307 -202 -659 -244 -1020 -19 -163 -41 -644 -32
-682 6 -24 10 -26 38 -18 73 21 296 61 443 80 88 11 161 22 163 23 1 2 -18 59
-43 128 -153 413 -247 904 -282 1469 l-7 115 -36 -95z"/>
<path d="M2546 6259 c-65 -5 -180 -18 -255 -29 -131 -19 -375 -74 -401 -90
-10 -6 -5 -45 24 -177 38 -170 80 -330 89 -339 3 -3 115 0 248 6 890 42 1915
-145 2809 -513 453 -186 782 -361 1235 -657 372 -243 631 -390 937 -532 575
-266 1147 -429 1740 -495 187 -20 657 -24 828 -5 453 49 836 158 1201 343
l136 69 80 107 c128 172 363 532 363 557 0 3 -48 -18 -107 -48 -432 -216 -897
-344 -1448 -397 -186 -18 -652 -16 -855 5 -996 100 -1890 426 -2854 1041 -87
55 -235 151 -329 214 -561 372 -1245 657 -1957 816 -503 112 -1032 156 -1484
124z"/>
<path d="M2280 4874 c0 -3 38 -80 84 -172 96 -189 229 -419 256 -443 14 -12
50 -18 137 -23 416 -23 979 -125 1438 -261 699 -206 1294 -485 1930 -904 105
-68 264 -169 355 -224 200 -120 629 -333 838 -417 392 -156 813 -277 1175
-335 l93 -15 115 39 c340 116 672 270 994 461 74 44 136 84 139 88 2 4 -44 4
-102 -1 -151 -12 -681 -1 -842 17 -317 36 -530 74 -822 147 -473 118 -906 281
-1378 520 -272 137 -485 262 -783 457 -527 347 -980 567 -1552 757 -625 207
-1264 315 -1872 315 -112 0 -203 -3 -203 -6z"/>
<path d="M3381 3323 c192 -194 483 -429 754 -608 706 -468 1476 -748 2320
-844 99 -12 205 -21 235 -21 l54 0 -159 78 c-297 147 -496 262 -850 492 -527
344 -964 560 -1510 746 -272 93 -643 192 -874 232 l-53 10 83 -85z"/>
<path d="M9625 10456 c-48 -21 -93 -79 -100 -130 -19 -126 119 -225 232 -167
63 31 88 74 88 146 0 73 -27 118 -89 146 -48 22 -89 23 -131 5z"/>
<path d="M9437 7446 c-136 -49 -218 -188 -189 -323 39 -188 239 -286 409 -200
96 49 144 125 151 239 4 69 2 84 -22 132 -65 132 -218 198 -349 152z"/>
</g>
</svg>
